<svg width="1098" height="791" viewBox="0 0 1098 791" fill="none" xmlns="http://www.w3.org/2000/svg">
<g id="fatherhood+1 1">
<g id="fatherhood 1">
<g id="Group">
<path id="Vector" opacity="0.1" d="M542.816 251.608C551.329 283.121 569.35 310.361 597.827 323.582C657.021 351.021 790.507 336.866 890.128 320.609C940.469 312.421 986.163 289.8 1019.85 256.386L542.816 251.608Z" fill="#6C63FF"/>
<path id="Vector_2" opacity="0.1" d="M1065.24 103.278H1010.58C1009.33 103.278 1008.13 102.848 1007.24 102.081C1006.36 101.314 1005.86 100.273 1005.86 99.1886C1005.86 98.104 1006.36 97.0637 1007.24 96.2967C1008.13 95.5297 1009.33 95.0988 1010.58 95.0988H1020.03C1018.8 95.0646 1017.64 94.6185 1016.79 93.8548C1015.93 93.0912 1015.46 92.0698 1015.46 91.0068C1015.46 89.9439 1015.93 88.9225 1016.79 88.1589C1017.64 87.3952 1018.8 86.9491 1020.03 86.9149H1013.28C1012.06 86.8806 1010.89 86.4345 1010.04 85.6709C1009.18 84.9072 1008.71 83.8859 1008.71 82.8229C1008.71 81.7599 1009.18 80.7386 1010.04 79.975C1010.89 79.2113 1012.06 78.7652 1013.28 78.731H1041.81C1035.48 76.1828 1028.08 74.3693 1019.55 73.418C941.76 64.7669 913.985 70.4918 904.187 76.3909C892.099 83.6532 878.614 88.9959 864.202 91.5696C816.203 100.144 726.439 110.464 645.08 88.2654C604.643 77.2233 574.592 95.876 556.576 127.032H1074.73C1074.06 117.977 1072.03 109.619 1068.31 102.297C1067.46 102.933 1066.37 103.281 1065.24 103.278Z" fill="#6C63FF"/>
<path id="Vector_3" opacity="0.1" d="M538.177 185.835C536.077 204.162 536.79 222.648 540.295 240.812L1020.22 256.017C1033.58 242.706 1044.8 227.89 1053.57 211.971L538.177 185.835ZM727.993 225.052H718.544C719.796 225.052 720.997 225.483 721.883 226.25C722.768 227.017 723.266 228.057 723.266 229.142C723.266 230.226 722.768 231.267 721.883 232.034C720.997 232.801 719.796 233.232 718.544 233.232H663.881C662.629 233.232 661.428 232.801 660.542 232.034C659.656 231.267 659.159 230.226 659.159 229.142C659.159 228.057 659.656 227.017 660.542 226.25C661.428 225.483 662.629 225.052 663.881 225.052H673.331C672.104 225.018 670.94 224.572 670.087 223.808C669.233 223.044 668.755 222.023 668.755 220.96C668.755 219.897 669.233 218.876 670.087 218.112C670.94 217.348 672.104 216.902 673.331 216.868H666.583C665.356 216.834 664.193 216.388 663.339 215.624C662.485 214.86 662.008 213.839 662.008 212.776C662.008 211.713 662.485 210.692 663.339 209.928C664.193 209.164 665.356 208.719 666.583 208.684H721.246C722.473 208.719 723.636 209.164 724.49 209.928C725.343 210.692 725.821 211.713 725.821 212.776C725.821 213.839 725.343 214.86 724.49 215.624C723.636 216.388 722.473 216.834 721.246 216.868H727.993C729.22 216.902 730.384 217.348 731.237 218.112C732.091 218.876 732.569 219.897 732.569 220.96C732.569 222.023 732.091 223.044 731.237 223.808C730.384 224.572 729.22 225.018 727.993 225.052Z" fill="#6C63FF"/>
<path id="Vector_4" opacity="0.1" d="M1074.76 127.304L550.794 138.346C544.419 152.535 540.217 168.567 538.255 185.203H1065.58C1069.02 175.435 1071.56 165.448 1073.19 155.334C1074.76 145.561 1075.39 136.108 1074.76 127.304ZM644.629 163.471H635.179C635.799 163.471 636.413 163.577 636.986 163.782C637.559 163.988 638.08 164.289 638.518 164.669C638.957 165.049 639.305 165.499 639.542 165.996C639.779 166.492 639.901 167.023 639.901 167.561C639.901 168.098 639.779 168.63 639.542 169.126C639.305 169.622 638.957 170.073 638.518 170.452C638.08 170.833 637.559 171.134 636.986 171.339C636.413 171.545 635.799 171.65 635.179 171.65H580.516C579.264 171.65 578.063 171.219 577.177 170.452C576.291 169.686 575.794 168.645 575.794 167.561C575.794 166.476 576.291 165.436 577.177 164.669C578.063 163.902 579.264 163.471 580.516 163.471H589.966C588.739 163.436 587.576 162.99 586.722 162.227C585.868 161.463 585.391 160.442 585.391 159.379C585.391 158.316 585.868 157.294 586.722 156.531C587.576 155.767 588.739 155.321 589.966 155.287H583.218C581.991 155.252 580.828 154.807 579.974 154.043C579.121 153.279 578.643 152.258 578.643 151.195C578.643 150.132 579.121 149.111 579.974 148.347C580.828 147.583 581.991 147.137 583.218 147.103H637.881C639.108 147.137 640.271 147.583 641.125 148.347C641.979 149.111 642.456 150.132 642.456 151.195C642.456 152.258 641.979 153.279 641.125 154.043C640.271 154.807 639.108 155.252 637.881 155.287H644.629C645.856 155.321 647.019 155.767 647.872 156.531C648.726 157.294 649.204 158.316 649.204 159.379C649.204 160.442 648.726 161.463 647.872 162.227C647.019 162.99 645.856 163.436 644.629 163.471Z" fill="#6C63FF"/>
<path id="Vector_6" d="M955.403 337.911C955.403 337.911 958.095 340.965 954.157 345.556C950.219 350.147 946.973 354.049 948.273 356.925C948.273 356.925 954.211 348.367 959.061 348.248C963.911 348.129 960.719 343.058 955.403 337.911Z" fill="#6C63FF"/>
<path id="Vector_7" opacity="0.1" d="M955.403 337.911C955.635 338.207 955.82 338.528 955.952 338.867C960.669 343.67 963.18 348.15 958.649 348.261C954.422 348.367 949.356 354.907 948.145 356.559C948.183 356.688 948.231 356.814 948.287 356.937C948.287 356.937 954.226 348.38 959.076 348.261C963.926 348.142 960.719 343.058 955.403 337.911Z" fill="black"/>
<path id="Vector_8" d="M960.41 341.801C960.41 342.876 960.272 343.746 960.101 343.746C959.929 343.746 959.787 342.876 959.787 341.801C959.787 340.727 959.963 341.232 960.135 341.232C960.307 341.232 960.41 340.727 960.41 341.801Z" fill="#FFD037"/>
<path id="Vector_9" d="M962.126 343.084C961.037 343.598 960.091 343.908 960.007 343.776C959.924 343.644 960.743 343.122 961.832 342.608C962.92 342.094 962.489 342.468 962.572 342.608C962.656 342.748 963.215 342.57 962.126 343.084Z" fill="#FFD037"/>
<path id="Vector_10" d="M941.172 337.911C941.172 337.911 938.48 340.965 942.417 345.556C946.355 350.147 949.597 354.049 948.302 356.925C948.302 356.925 942.359 348.367 937.514 348.248C932.669 348.129 935.851 343.058 941.172 337.911Z" fill="#6C63FF"/>
<path id="Vector_11" opacity="0.1" d="M941.172 337.911C940.937 338.205 940.753 338.527 940.623 338.867C935.905 343.67 933.39 348.15 937.926 348.261C942.148 348.367 947.243 354.907 948.429 356.559C948.39 356.687 948.341 356.81 948.287 356.937C948.287 356.937 942.344 348.38 937.499 348.261C932.654 348.142 935.851 343.058 941.172 337.911Z" fill="black"/>
<path id="Vector_12" d="M936.165 341.801C936.165 342.876 936.302 343.746 936.474 343.746C936.646 343.746 936.788 342.876 936.788 341.801C936.788 340.727 936.611 341.232 936.44 341.232C936.268 341.232 936.165 340.727 936.165 341.801Z" fill="#FFD037"/>
<path id="Vector_13" d="M934.444 343.084C935.532 343.598 936.484 343.908 936.567 343.776C936.651 343.644 935.832 343.122 934.743 342.608C933.654 342.094 934.086 342.468 934.003 342.608C933.919 342.748 933.355 342.57 934.444 343.084Z" fill="#FFD037"/>
<path id="Vector_14" d="M937.023 356.538C937.023 356.538 944.556 356.334 946.831 354.937C949.106 353.54 958.419 351.862 958.983 354.088C959.546 356.313 970.301 365.253 961.797 365.312C953.294 365.372 942.04 364.166 939.774 362.972C937.509 361.779 937.023 356.538 937.023 356.538Z" fill="#A8A8A8"/>
<path id="Vector_15" opacity="0.2" d="M961.944 364.552C953.441 364.612 942.187 363.406 939.921 362.212C938.195 361.299 937.509 358.033 937.278 356.53H937.028C937.028 356.53 937.519 361.787 939.769 362.985C942.02 364.183 953.289 365.385 961.792 365.325C964.244 365.325 965.098 364.552 965.049 363.431C964.705 364.119 963.769 364.539 961.944 364.552Z" fill="black"/>
<path id="Vector_16" d="M669.03 358.925C669.93 358.289 670.586 357.431 670.913 356.466C671.153 355.493 670.673 354.343 669.599 353.965C668.392 353.565 667.103 354.292 666.122 355.022C665.141 355.753 664.028 356.589 662.748 356.432C663.406 355.916 663.899 355.261 664.177 354.53C664.456 353.8 664.511 353.02 664.337 352.266C664.281 351.953 664.129 351.66 663.896 351.416C663.224 350.796 662.013 351.06 661.208 351.548C658.658 353.102 657.947 356.105 657.933 358.802C657.678 357.829 657.893 356.814 657.888 355.829C657.884 354.844 657.565 353.705 656.594 353.183C655.991 352.905 655.315 352.767 654.632 352.784C653.485 352.746 652.21 352.848 651.425 353.57C650.445 354.474 650.704 355.986 651.553 356.967C652.401 357.948 653.686 358.585 654.868 359.269C655.819 359.759 656.63 360.428 657.241 361.227C657.311 361.34 657.37 361.458 657.418 361.579H664.602C666.209 360.871 667.699 359.979 669.03 358.925Z" fill="#6C63FF"/>
<path id="Vector_17" d="M611.935 365.627C611.935 365.627 605.04 345.364 613.225 330.453C616.709 324.217 617.762 317.169 616.226 310.369C615.468 307.149 614.37 303.996 612.945 300.95" stroke="#535461" stroke-width="2" stroke-miterlimit="10"/>
<path id="Vector_18" d="M618.021 291.521C618.021 294.006 612.832 301.209 612.832 301.209C612.832 301.209 607.639 293.989 607.639 291.521C607.681 290.353 608.246 289.244 609.215 288.431C610.184 287.617 611.48 287.162 612.83 287.162C614.179 287.162 615.476 287.617 616.445 288.431C617.414 289.244 617.979 290.353 618.021 291.521Z" fill="#6C63FF"/>
<path id="Vector_19" d="M626.602 305.277C625.048 307.363 616.167 310.964 616.167 310.964C616.167 310.964 616.329 302.47 617.888 300.389C618.655 299.424 619.825 298.756 621.152 298.526C622.478 298.297 623.856 298.525 624.991 299.162C626.126 299.799 626.929 300.794 627.23 301.936C627.531 303.078 627.306 304.277 626.602 305.277Z" fill="#6C63FF"/>
<path id="Vector_20" d="M626.229 328.784C623.67 329.901 613.906 329.128 613.906 329.128C613.906 329.128 618.996 321.87 621.556 320.753C622.167 320.473 622.836 320.301 623.524 320.248C624.212 320.195 624.905 320.261 625.563 320.443C626.222 320.624 626.831 320.918 627.357 321.306C627.883 321.694 628.313 322.17 628.624 322.704C628.935 323.238 629.12 323.82 629.167 324.418C629.215 325.014 629.125 325.613 628.902 326.18C628.679 326.746 628.327 327.268 627.869 327.715C627.41 328.162 626.853 328.526 626.229 328.784Z" fill="#6C63FF"/>
<path id="Vector_21" d="M621.321 346.515C619.016 347.993 609.243 348.639 609.243 348.639C609.243 348.639 612.842 340.744 615.127 339.266C615.671 338.88 616.3 338.593 616.976 338.424C617.652 338.255 618.36 338.206 619.058 338.281C619.756 338.356 620.43 338.553 621.037 338.86C621.645 339.167 622.174 339.578 622.593 340.068C623.011 340.557 623.311 341.115 623.473 341.708C623.635 342.301 623.656 342.916 623.535 343.516C623.415 344.117 623.154 344.689 622.77 345.2C622.386 345.71 621.886 346.148 621.301 346.486L621.321 346.515Z" fill="#6C63FF"/>
<path id="Vector_22" d="M605.271 311.444C607.325 313.172 616.907 314.969 616.907 314.969C616.907 314.969 614.558 306.725 612.494 304.993C612.009 304.564 611.43 304.223 610.791 303.991C610.152 303.759 609.465 303.64 608.772 303.64C608.079 303.642 607.393 303.763 606.755 303.997C606.117 304.232 605.539 304.574 605.056 305.005C604.573 305.436 604.195 305.946 603.943 306.505C603.692 307.064 603.572 307.662 603.591 308.262C603.61 308.862 603.768 309.452 604.054 309.999C604.341 310.546 604.751 311.037 605.261 311.444H605.271Z" fill="#6C63FF"/>
<path id="Vector_23" d="M599.832 332.241C602.392 333.358 612.156 332.585 612.156 332.585C612.156 332.585 607.065 325.331 604.506 324.21C603.28 323.702 601.873 323.63 600.586 324.01C599.3 324.39 598.237 325.191 597.625 326.242C597.014 327.294 596.902 328.511 597.315 329.632C597.728 330.754 598.631 331.69 599.832 332.241Z" fill="#6C63FF"/>
<path id="Vector_24" d="M597.753 353.085C600.058 354.559 609.826 355.209 609.826 355.209C609.826 355.209 606.232 347.314 603.942 345.836C602.832 345.195 601.481 344.948 600.168 345.147C598.855 345.345 597.68 345.973 596.887 346.901C596.093 347.829 595.742 348.985 595.906 350.131C596.07 351.277 596.737 352.324 597.768 353.056L597.753 353.085Z" fill="#6C63FF"/>
<path id="Vector_25" d="M618.021 291.521C618.021 294.006 612.832 301.209 612.832 301.209C612.832 301.209 607.639 293.989 607.639 291.521C607.681 290.353 608.246 289.244 609.215 288.431C610.184 287.617 611.48 287.162 612.83 287.162C614.179 287.162 615.476 287.617 616.445 288.431C617.414 289.244 617.979 290.353 618.021 291.521Z" fill="#6C63FF"/>
<path id="Vector_26" d="M626.602 305.277C625.048 307.363 616.167 310.964 616.167 310.964C616.167 310.964 616.329 302.47 617.888 300.389C618.655 299.424 619.825 298.756 621.152 298.526C622.478 298.297 623.856 298.525 624.991 299.162C626.126 299.799 626.929 300.794 627.23 301.936C627.531 303.078 627.306 304.277 626.602 305.277Z" fill="#6C63FF"/>
<path id="Vector_27" d="M626.229 328.784C623.67 329.901 613.906 329.128 613.906 329.128C613.906 329.128 618.996 321.87 621.556 320.753C622.167 320.473 622.836 320.301 623.524 320.248C624.212 320.195 624.905 320.261 625.563 320.443C626.222 320.624 626.831 320.918 627.357 321.306C627.883 321.694 628.313 322.17 628.624 322.704C628.935 323.238 629.12 323.82 629.167 324.418C629.215 325.014 629.125 325.613 628.902 326.18C628.679 326.746 628.327 327.268 627.869 327.715C627.41 328.162 626.853 328.526 626.229 328.784Z" fill="#6C63FF"/>
<path id="Vector_28" d="M621.321 346.515C619.016 347.993 609.243 348.639 609.243 348.639C609.243 348.639 612.842 340.744 615.127 339.266C615.671 338.88 616.3 338.593 616.976 338.424C617.652 338.255 618.36 338.206 619.058 338.281C619.756 338.356 620.43 338.553 621.037 338.86C621.645 339.167 622.174 339.578 622.593 340.068C623.011 340.557 623.311 341.115 623.473 341.708C623.635 342.301 623.656 342.916 623.535 343.516C623.415 344.117 623.154 344.689 622.77 345.2C622.386 345.71 621.886 346.148 621.301 346.486L621.321 346.515Z" fill="#6C63FF"/>
<path id="Vector_29" d="M605.271 311.444C607.325 313.172 616.907 314.969 616.907 314.969C616.907 314.969 614.558 306.725 612.494 304.993C612.009 304.564 611.43 304.223 610.791 303.991C610.152 303.759 609.465 303.64 608.772 303.64C608.079 303.642 607.393 303.763 606.755 303.997C606.117 304.232 605.539 304.574 605.056 305.005C604.573 305.436 604.195 305.946 603.943 306.505C603.692 307.064 603.572 307.662 603.591 308.262C603.61 308.862 603.768 309.452 604.054 309.999C604.341 310.546 604.751 311.037 605.261 311.444H605.271Z" fill="#6C63FF"/>
<path id="Vector_30" d="M599.832 332.241C602.392 333.358 612.156 332.585 612.156 332.585C612.156 332.585 607.065 325.331 604.506 324.21C603.28 323.702 601.873 323.63 600.586 324.01C599.3 324.39 598.237 325.191 597.625 326.242C597.014 327.294 596.902 328.511 597.315 329.632C597.728 330.754 598.631 331.69 599.832 332.241Z" fill="#6C63FF"/>
<path id="Vector_31" d="M597.753 353.085C600.058 354.559 609.826 355.209 609.826 355.209C609.826 355.209 606.232 347.314 603.942 345.836C602.832 345.195 601.481 344.948 600.168 345.147C598.855 345.345 597.68 345.973 596.887 346.901C596.093 347.829 595.742 348.985 595.906 350.131C596.07 351.277 596.737 352.324 597.768 353.056L597.753 353.085Z" fill="#6C63FF"/>
<path id="Vector_32" d="M595.63 364.353C595.63 364.353 604.025 362.909 606.261 360.985C608.497 359.061 618.57 355.693 619.688 358.097C620.806 360.501 634.792 368.68 625.278 370.124C615.765 371.568 602.902 372.048 600.107 371.084C597.312 370.12 595.63 364.353 595.63 364.353Z" fill="#A8A8A8"/>
<path id="Vector_33" opacity="0.2" d="M625.293 369.224C615.784 370.668 602.917 371.148 600.122 370.188C597.993 369.453 596.512 365.941 595.929 364.297L595.63 364.353C595.63 364.353 597.312 370.124 600.107 371.084C602.902 372.044 615.77 371.564 625.278 370.124C628.024 369.7 628.809 368.727 628.515 367.491C628.294 368.294 627.338 368.914 625.293 369.224Z" fill="black"/>
<path id="Vector_34" d="M752.257 212.761C752.257 212.761 750.615 224.419 763.644 225.613L765.606 217.543L761.501 212.761L755.621 211.037L752.257 212.761Z" fill="#6C63FF"/>
<path id="Vector_35" opacity="0.1" d="M755.621 211.037L752.257 212.757C752.257 212.757 750.615 224.415 763.644 225.608" fill="black"/>
<path id="Vector_36" d="M775.899 146.844C775.899 146.844 767.106 147.311 758.289 148.577C757.387 148.71 756.489 148.851 755.597 149.001C755.077 149.086 754.567 149.175 754.057 149.273C749.438 150.097 745.23 151.167 742.778 152.535C739.836 154.17 738.855 149.766 738.762 143.646C738.723 141.493 738.806 139.131 738.939 136.745C739.11 133.984 739.36 131.19 739.625 128.675C740.209 123.103 740.881 118.771 740.881 118.771C740.881 118.771 743.96 118.771 748.075 118.648L749.399 118.606C750.688 118.563 752.056 118.504 753.434 118.432C754.087 118.402 754.744 118.368 755.396 118.325C758.005 118.164 760.579 117.935 762.752 117.637C765.066 117.315 766.944 116.907 767.964 116.363C772.623 113.96 775.899 146.844 775.899 146.844Z" fill="#F8BDC5"/>
<path id="Vector_37" d="M815.075 189.891L813.359 199.757C813.359 199.757 809.617 203.792 810.108 206.034C810.598 208.276 814.913 307.375 814.913 307.375C814.913 307.375 823.373 349.225 820.435 354.606C817.498 359.987 820.264 372.545 820.264 372.545L837.868 370.154L843.753 187.199L815.075 189.891Z" fill="#474463"/>
<path id="Vector_38" opacity="0.1" d="M815.075 189.891L813.359 199.757C813.359 199.757 809.617 203.792 810.108 206.034C810.598 208.276 814.913 307.375 814.913 307.375C814.913 307.375 823.373 349.225 820.435 354.606C817.498 359.987 820.264 372.545 820.264 372.545L837.868 370.154L843.753 187.199L815.075 189.891Z" fill="black"/>
<path id="Vector_39" d="M853.909 375.085C853.35 375.887 853.394 378.249 853.551 380.258C853.688 381.986 853.909 383.456 853.909 383.456V393.619C853.909 393.619 835.098 387.94 824.741 381.961C820.469 379.493 819.253 377.2 819.489 375.365C819.832 372.753 823.118 371.05 824.741 371.05C826.29 371.05 831.184 368.71 835.196 366.642C838.349 365.024 840.967 363.575 840.967 363.575C840.967 363.575 854.943 373.59 853.909 375.085Z" fill="#575988"/>
<path id="Vector_40" opacity="0.1" d="M853.909 375.085C853.35 375.887 853.394 378.249 853.551 380.258C849.368 378.559 836.417 367.678 835.196 366.642C838.349 365.024 840.967 363.575 840.967 363.575C840.967 363.575 854.943 373.59 853.909 375.085Z" fill="black"/>
<path id="Vector_41" d="M892.57 196.767L888.083 211.118C888.083 211.118 885.494 215.45 885.141 217.543C884.788 219.637 882.38 222.776 882.38 222.776C881.29 224.841 880.703 227.079 880.654 229.35C880.482 233.389 877.221 252.071 873.578 255.21L872.715 267.318C872.715 267.318 869.282 269.407 871.68 272.414C874.078 275.421 873.234 283.176 873.234 283.176C873.234 283.176 869.954 285.418 872.028 287.661C874.102 289.903 872.715 296.482 872.715 296.482C872.715 296.482 870.817 298.571 871.68 299.769C872.543 300.967 870.827 331.757 870.827 331.757L866.678 346.851C866.678 346.851 864.775 359.409 863.736 363.146C862.696 366.884 862.701 371.513 862.701 371.513C862.701 371.513 858.214 379.735 854.933 379.289C851.653 378.843 835.779 365.385 835.779 365.385L838.02 319.942C838.02 319.942 839.918 300.661 838.712 296.923C837.505 293.186 836.642 274.504 836.642 274.504L834.225 245.059L810.088 212.175C810.088 212.175 808.337 202.607 813.339 199.77L814.247 194.601L815.065 189.904L843.718 187.211L887.554 177.35C887.554 177.35 890.932 179.155 892.703 183.661C893.914 186.698 894.38 190.978 892.57 196.767Z" fill="#474463"/>
<path id="Vector_42" d="M816.301 211.886C816.301 211.886 795.936 233.546 796.799 227.494C797.338 223.693 794.553 219.051 792.385 216.116C791.105 214.371 790.046 213.228 790.046 213.228C790.046 213.228 802.472 193.501 803.164 196.19C803.385 197.039 804.821 198.988 806.67 201.214C810.569 205.877 816.301 211.886 816.301 211.886Z" fill="#FFC1C8"/>
<path id="Vector_43" opacity="0.3" d="M853.909 391.504V393.627C853.909 393.627 835.098 387.949 824.741 381.969C820.469 379.502 819.253 377.208 819.489 375.374C825.207 377.879 835.843 382.657 839.065 384.81C841.801 386.636 848.872 389.529 853.909 391.504Z" fill="white"/>
<g id="skate">
<path id="Vector_44" d="M876.049 389.363C876.017 389.718 875.902 390.063 875.711 390.378L872.278 393.619L824.299 392.952L811.397 392.769C811.397 392.769 784.24 388.488 778.949 386.492C773.658 384.496 752.856 380.844 752.856 380.844C752.856 380.844 740.292 379.017 738.448 373.738C737.826 371.95 738.139 370.672 738.821 369.763C740.16 367.984 742.935 367.61 742.935 367.61C748.605 366.16 754.666 366.353 760.197 368.162L840.619 386.08L841.865 386.356C841.865 386.356 870.532 385.893 871.111 385.982C875.51 386.679 876.152 388.297 876.049 389.363Z" fill="#6C63FF"/>
<path id="Vector_45" opacity="0.3" d="M876.049 389.363C871.224 388.819 862.809 388.017 860.641 388.79C860.641 388.79 845.337 387.15 824.28 392.952L811.397 392.769C811.397 392.769 784.24 388.488 778.949 386.492C773.658 384.496 752.856 380.844 752.856 380.844C752.856 380.844 740.292 379.017 738.448 373.738C737.826 371.95 738.139 370.672 738.821 369.763C739.679 371.929 741.332 375.068 743.97 375.947C748.114 377.327 765.145 380.139 765.145 380.139L798.853 387.286C798.853 387.286 818.317 390.943 825.893 388.56C828.997 387.592 834.823 386.73 840.605 386.055L841.85 386.331C841.85 386.331 870.518 385.868 871.096 385.957C875.51 386.679 876.152 388.297 876.049 389.363Z" fill="white"/>
</g>
<path id="Vector_46" d="M829.497 383.982C829.457 384.608 829.366 385.231 829.228 385.847C829.228 385.847 810.162 386.437 800.236 385.163C797.495 384.81 795.946 384.05 795.176 383.141C794.832 382.712 794.619 382.214 794.556 381.695C794.493 381.175 794.584 380.65 794.818 380.168C794.927 379.891 795.067 379.624 795.234 379.37C795.975 378.249 797.113 377.455 797.735 377.561C799.462 377.862 802.423 374.796 802.423 374.796C802.188 372.923 805.586 372.248 806.116 372.554C806.211 372.616 806.322 372.657 806.44 372.672C806.558 372.686 806.678 372.674 806.79 372.637C806.901 372.599 806.999 372.537 807.074 372.457C807.149 372.377 807.199 372.282 807.219 372.18C807.254 372.04 807.264 371.364 807.264 370.574C807.264 369.258 807.219 367.602 807.219 367.602L826.383 369.619L827.144 372.791C827.84 375.62 828.811 379.506 829.228 380.835C829.517 381.864 829.609 382.928 829.497 383.982Z" fill="#474463"/>
<path id="Vector_47" opacity="0.1" d="M829.497 383.982C829.457 384.608 829.366 385.231 829.228 385.847C829.228 385.847 810.162 386.437 800.236 385.163C797.495 384.81 795.945 384.05 795.176 383.141C797.721 383.01 801.031 382.937 803.081 383.371C806.003 383.999 823.485 383.999 829.497 383.982Z" fill="black"/>
<path id="Vector_48" d="M795.215 379.361C795.236 379.515 795.208 379.67 795.134 379.811C795.061 379.951 794.945 380.072 794.798 380.16C792.385 381.774 780.807 380.02 780.807 380.02C780.807 380.02 757.151 378.746 753.616 376.656C753.297 376.474 753.03 376.232 752.836 375.947C751.365 373.645 756.69 369.78 757.151 369.78C757.612 369.78 763.973 369.029 764.399 368.956C767.342 368.442 770.284 366.863 770.774 367.313C771.265 367.763 773.717 366.714 774.913 366.565C775.349 366.51 775.551 365.975 775.624 365.291C775.693 364.366 775.657 363.437 775.516 362.518L794.411 366.922L794.577 369.53L795.122 378.211L795.19 379.277C795.202 379.304 795.21 379.333 795.215 379.361Z" fill="#474463"/>
<path id="Vector_49" opacity="0.1" d="M780.827 380.02C780.827 380.02 757.171 378.746 753.635 376.656C753.316 376.474 753.049 376.232 752.856 375.947C757.647 376.287 765.635 376.86 767.077 377.179C769.151 377.603 780.807 378.223 780.807 378.223H795.141L795.21 379.289C795.833 382.296 780.827 380.02 780.827 380.02Z" fill="black"/>
<path id="Vector_50" d="M765.89 218.142C765.89 218.142 764.801 219.841 763.164 222.364C759.24 228.36 752.184 238.99 749.148 242.354C744.833 247.136 745.181 242.656 740.518 232.641C737.056 225.192 747.712 216.668 753.41 212.795C755.371 211.449 756.744 210.672 756.744 210.672L765.89 218.142Z" fill="#F8BDC5"/>
<path id="Vector_51" d="M786.77 229.651C786.77 229.651 772.446 230.696 769.686 231.444C766.925 232.191 755.018 231.741 753.993 231.444C752.968 231.146 732.588 235.181 741.91 239.216C751.233 243.25 757.112 239.216 757.112 239.216C757.112 239.216 769.195 238.617 772.314 240.265C775.433 241.912 786.81 241.012 786.81 241.012L786.77 229.651Z" fill="#FFC1C8"/>
<path id="Vector_52" opacity="0.1" d="M757.014 138.176C758.78 142.087 757.676 145.493 755.597 148.989C750.389 149.838 745.49 151.006 742.764 152.522C734.996 156.858 740.866 118.742 740.866 118.742C740.866 118.742 744.622 118.742 749.384 118.576C747.942 124.275 753.405 130.192 757.014 138.176Z" fill="black"/>
<path id="Vector_53" d="M757.455 137.326C757.446 143.587 754.777 149.625 749.955 154.29C745.134 158.954 738.499 161.918 731.315 162.617C724.132 163.315 716.903 161.699 711.008 158.076C705.112 154.454 700.963 149.079 699.351 142.976C697.739 136.873 698.777 130.47 702.268 124.988C705.759 119.506 711.458 115.329 718.277 113.253C725.097 111.178 732.56 111.349 739.244 113.735C745.927 116.12 751.362 120.552 754.513 126.187C756.455 129.659 757.461 133.468 757.455 137.326Z" fill="#F8BDC5"/>
<path id="Vector_54" opacity="0.1" d="M892.712 183.648C891.781 184.822 890.386 185.661 888.789 186.005C882.056 187.649 834.592 197.515 831.488 196.916C828.747 196.389 816.983 194.924 814.271 194.588L815.09 189.891L843.743 187.199L887.578 177.337C887.578 177.337 890.942 179.142 892.712 183.648Z" fill="black"/>
<path id="Vector_55" opacity="0.1" d="M775.899 146.844C770.288 147.135 764.699 147.674 759.152 148.458C759.231 148.239 759.221 148.004 759.123 147.791L770.598 146.564C770.598 146.564 768.921 123.205 762.752 117.608C765.066 117.285 766.944 116.877 767.964 116.334C772.623 113.96 775.899 146.844 775.899 146.844Z" fill="black"/>
<path id="Vector_56" d="M760.888 111.764C760.888 111.764 771.073 110.97 772.451 109.475C773.829 107.98 783.671 107.534 783.671 107.534C783.671 107.534 788.502 106.786 789.556 105.737C790.61 104.688 816.821 103.346 819.41 104.544C821.999 105.742 824.417 106.485 825.972 106.638C827.526 106.791 839.604 114.257 840.81 114.257C842.017 114.257 875.137 141.314 875.137 141.314C875.137 141.314 878.57 148.19 879.972 148.487C881.375 148.785 893.781 175.991 893.781 175.991C893.781 175.991 895.508 182.565 888.78 184.213C882.052 185.861 834.583 195.722 831.479 195.124C828.374 194.525 813.702 192.732 813.702 192.732C813.702 192.732 813.874 192.732 813.531 191.089C813.187 189.445 812.667 189.891 813.354 188.396C814.041 186.901 814.737 187.05 813.874 186.154C813.011 185.258 813.874 184.808 811.113 183.313C808.352 181.818 805.228 180.174 805.072 179.728C804.915 179.282 802.482 176.288 801.276 176.14C800.07 175.991 766.238 167.769 766.238 167.769L758.299 165.526C758.299 165.526 754.503 163.284 755.357 161.942C756.21 160.6 759.147 148.458 759.147 148.458L771.284 147.162C771.284 147.162 769.475 121.85 762.678 117.603C755.881 113.357 760.888 111.764 760.888 111.764Z" fill="#6C63FF"/>
<path id="Vector_57" opacity="0.1" d="M765.89 218.142C765.89 218.142 764.801 219.841 763.164 222.364C762.909 214.566 756.612 213.054 753.41 212.795C755.371 211.449 756.744 210.672 756.744 210.672L765.89 218.142Z" fill="black"/>
<path id="Vector_58" d="M757.455 161.492L758.289 165.526C758.289 165.526 761.57 168.966 761.57 170.011C761.57 171.056 765.365 174.046 766.405 175.689C767.445 177.333 771.064 177.634 769.681 180.476C768.298 183.317 760.363 204.989 760.363 204.989L752.253 212.761C752.253 212.761 765.714 211.712 763.639 225.613L781.072 212.447L794.724 190.936C794.724 190.936 781.435 169.115 780.92 167.323C780.405 165.531 757.455 161.492 757.455 161.492Z" fill="#6C63FF"/>
<path id="Vector_59" opacity="0.1" d="M797.819 168.966C797.819 168.966 808.862 162.239 808.862 161.492C808.862 160.744 797.819 168.966 797.819 168.966Z" fill="black"/>
<path id="Vector_60" opacity="0.1" d="M816.301 177.337C816.301 177.337 822.186 176.14 822.676 173.451C823.167 170.763 816.301 177.337 816.301 177.337Z" fill="black"/>
<path id="Vector_61" opacity="0.1" d="M821.117 184.213C821.117 184.213 829.404 180.658 829.056 180.042C828.708 179.427 821.117 184.213 821.117 184.213Z" fill="black"/>
<path id="Vector_62" opacity="0.1" d="M865.472 161.445C865.472 161.445 862.039 163.386 863.059 165.204C864.079 167.021 865.472 161.445 865.472 161.445Z" fill="black"/>
<path id="Vector_63" opacity="0.1" d="M875.637 162.239C875.637 162.239 865.859 170.308 868.071 170.461C870.282 170.614 875.637 162.239 875.637 162.239Z" fill="black"/>
<path id="Vector_64" opacity="0.1" d="M853.394 287.347C853.394 287.347 865.992 289.44 866.335 290.188C866.678 290.935 853.394 287.347 853.394 287.347Z" fill="black"/>
<path id="Vector_65" opacity="0.1" d="M857.881 294.52C857.881 294.52 864.609 298.108 864.78 299.153C864.952 300.198 857.881 294.52 857.881 294.52Z" fill="black"/>
<path id="Vector_66" opacity="0.1" d="M856.326 302.593C856.326 302.593 857.361 306.628 859.087 307.227C860.813 307.825 856.326 302.593 856.326 302.593Z" fill="black"/>
<path id="Vector_67" opacity="0.1" d="M754.543 126.055C754.543 126.097 754.543 126.144 754.518 126.187C754.283 127.516 753.655 128.956 752.213 129.397C751.342 129.61 750.411 129.535 749.6 129.189C747.148 128.259 744.965 126.025 742.347 126.565C741.101 126.819 740.228 127.639 739.611 128.646C739.182 129.37 738.853 130.135 738.63 130.926C738.139 132.591 737.747 134.4 738.497 135.984C738.621 136.243 738.769 136.494 738.939 136.732C739.635 137.696 740.616 138.516 741.302 139.488C742.156 140.703 742.376 142.525 741.047 143.357C740.714 143.547 740.336 143.67 739.941 143.718C739.545 143.766 739.143 143.737 738.762 143.633C737.789 143.368 736.853 143.009 735.972 142.563C734.236 141.777 732.049 141.289 730.401 142.198C729.832 142.503 729.376 142.945 728.832 143.268C727.701 143.875 726.358 144.117 725.041 143.952C721.922 143.676 720.755 141.964 718.372 140.639C716.626 139.662 712.978 139.246 711.938 141.242C711.271 142.516 712.262 144.122 711.61 145.421C710.958 146.721 708.883 147.12 707.922 148.326C706.657 149.914 707.834 152.212 706.907 153.975C706.765 154.248 706.575 154.5 706.343 154.722C701.147 149.872 698.324 143.467 698.469 136.852C698.613 130.237 701.714 123.928 707.119 119.253C712.524 114.578 719.812 111.899 727.45 111.782C735.088 111.665 742.481 114.117 748.075 118.623L749.399 118.58C750.688 118.538 752.056 118.478 753.434 118.406C753.76 119.004 754.015 119.628 754.194 120.271C754.728 122.163 754.846 124.125 754.543 126.055Z" fill="black"/>
<path id="Vector_68" d="M711.237 140.648C710.565 141.922 711.556 143.527 710.909 144.822C710.261 146.118 708.172 146.521 707.221 147.727C705.951 149.32 707.128 151.618 706.206 153.376C705.147 155.385 701.949 155.699 699.497 155.113C697.402 154.595 695.48 153.652 693.889 152.364C692.298 151.075 691.084 149.477 690.347 147.702C688.684 143.603 689.758 139.093 689.327 134.766C689.143 132.911 688.682 131.085 687.954 129.334C687.243 127.635 686.272 125.962 686.041 124.157C685.877 122.625 686.245 121.086 687.1 119.738C687.955 118.39 689.257 117.294 690.837 116.593C692.858 115.743 695.344 115.501 696.815 114.045C697.943 112.915 698.183 111.339 698.708 109.916C700.125 106.094 704.357 102.977 709.006 103.015C712.723 103.041 716.362 104.939 719.995 104.192C722.05 103.767 723.918 102.493 726.037 102.675C727.051 102.814 728.024 103.127 728.896 103.597C734.536 106.235 739.902 109.29 744.936 112.728C745.977 113.505 747.117 114.176 748.334 114.728C749.118 114.993 749.883 115.298 750.624 115.641C752.208 116.491 753.037 118.109 753.488 119.68C754.03 121.571 754.153 123.534 753.851 125.465C753.635 126.828 753.018 128.357 751.522 128.811C750.648 129.022 749.715 128.945 748.903 128.595C746.451 127.673 744.274 125.439 741.655 125.974C739.517 126.399 738.488 128.497 737.929 130.336C737.438 132.001 737.036 133.81 737.796 135.398C738.424 136.715 739.758 137.679 740.596 138.898C741.435 140.117 741.675 141.939 740.341 142.767C738.87 143.688 736.874 142.707 735.261 141.977C733.535 141.191 731.338 140.703 729.695 141.607C729.131 141.913 728.675 142.355 728.126 142.682C726.994 143.283 725.655 143.523 724.34 143.361C721.216 143.085 720.049 141.374 717.671 140.049C715.92 139.063 712.282 138.647 711.237 140.648Z" fill="#474463"/>
<path id="Vector_69" opacity="0.1" d="M806.675 201.192C806.543 201.829 805.532 201.902 805.327 202.522C803.365 208.514 799.05 213.904 792.39 216.112C791.11 214.367 790.051 213.224 790.051 213.224C790.051 213.224 802.477 193.497 803.169 196.185C803.39 197.022 804.826 198.967 806.675 201.192Z" fill="black"/>
<path id="Vector_70" d="M807.043 197.064C807.044 200.967 805.708 204.782 803.206 208.028C800.703 211.273 797.145 213.803 792.982 215.297C788.819 216.791 784.238 217.182 779.818 216.422C775.398 215.661 771.338 213.782 768.151 211.022C764.965 208.263 762.794 204.747 761.915 200.92C761.035 197.092 761.486 193.124 763.211 189.519C764.935 185.913 767.855 182.831 771.602 180.663C775.349 178.494 779.754 177.337 784.26 177.337C787.254 177.328 790.221 177.832 792.99 178.819C795.759 179.807 798.275 181.26 800.393 183.094C802.51 184.927 804.188 187.106 805.329 189.503C806.471 191.901 807.053 194.471 807.043 197.064Z" fill="#FFC1C8"/>
<path id="Vector_71" opacity="0.1" d="M794.45 366.935L794.617 369.542C792.621 369.925 788.825 370.426 786.614 369.254C783.755 367.737 779.532 367.368 775.663 365.304C775.732 364.379 775.696 363.45 775.555 362.531L794.45 366.935Z" fill="black"/>
<path id="Vector_72" opacity="0.1" d="M827.144 372.8C827.011 373.382 826.889 373.738 826.889 373.738C826.889 373.738 811.662 372.388 807.273 370.566C807.273 369.249 807.229 367.593 807.229 367.593L826.393 369.61L827.144 372.8Z" fill="black"/>
<path id="Vector_73" d="M823.706 313.504C822.671 315.895 822.151 316.345 823.191 317.538C824.231 318.732 823.706 325.013 822.058 325.608C820.411 326.202 814.212 329.791 814.212 329.791C814.212 329.791 817.645 333.677 817.748 335.312C817.838 336.357 818.304 337.35 819.082 338.153C819.082 338.153 824.397 348.019 825.457 351.157C826.516 354.296 827.487 359.227 827.487 359.227C827.487 359.227 825.628 363.711 826.913 366.255C828.198 368.799 826.913 372.532 826.913 372.532C826.913 372.532 808.372 370.889 806.317 368.778C804.262 366.667 805.631 361.919 805.631 361.919C805.207 359.803 804.329 357.775 803.041 355.939C800.967 353.098 803.532 350.113 803.041 349.96C802.551 349.807 800.967 348.167 799.408 345.479C797.848 342.791 796.877 343.831 796.877 343.831C796.877 343.831 798.898 358.929 796.877 360.276C794.857 361.622 794.582 361.023 795.102 362.824C795.505 364.552 795.793 366.299 795.965 368.056C795.965 368.056 789.752 369.7 786.648 368.056C783.544 366.412 778.87 366.111 774.766 363.571C770.661 361.031 776.624 356.695 777.659 356.097C778.694 355.498 777.316 346.83 777.316 346.83L775.933 338.31C775.933 338.31 780.592 339.206 779.062 335.919C777.532 332.632 775.761 321.271 774.898 319.479C774.035 317.687 777.841 315.292 777.316 314.098C776.791 312.905 779.557 306.029 779.557 306.029C779.557 306.029 779.734 300.351 781.455 299.285C782.112 298.886 782.538 297.645 782.823 296.274C783.124 294.655 783.303 293.02 783.357 291.381C783.357 291.381 822.877 288.99 829.262 292.277C832.136 293.755 831.935 296.477 830.733 299.234C829.262 302.597 826.241 306.029 825.481 307.273C824.054 309.567 824.741 311.113 823.706 313.504Z" fill="#575988"/>
<path id="Vector_74" opacity="0.1" d="M830.684 299.234C825.78 300.427 819.248 302.181 818.184 303.188C816.458 304.836 810.588 293.921 810.588 293.921C810.588 293.921 810.936 302.126 803.169 298.694C796.446 295.722 785.594 296.112 782.789 296.274C783.09 294.655 783.269 293.02 783.323 291.381C783.323 291.381 822.843 288.99 829.228 292.277C832.101 293.755 831.9 296.477 830.684 299.234Z" fill="black"/>
<path id="Vector_75" d="M810.588 208.875C810.588 208.875 814.021 205.287 814.732 206.633C815.443 207.979 819.494 210.667 819.494 210.667C819.494 210.667 820.656 213.806 822.701 214.256C824.746 214.706 840.104 232.641 840.104 232.641L834.578 242.354L830.091 265.972C830.091 265.972 830.287 269.709 829.066 271.068C827.845 272.427 823.181 272.113 825.344 273.756C827.506 275.4 830.611 276.895 832.337 284.374C834.063 291.853 836.132 296.18 836.132 296.18C836.132 296.18 819.91 299.769 818.184 301.413C816.458 303.056 810.588 292.146 810.588 292.146C810.588 292.146 810.936 300.347 803.169 296.919C795.401 293.492 782.112 294.537 782.112 294.537V285.703C782.112 285.703 784.701 282.263 783.323 279.872C781.945 277.481 784.265 272.996 784.265 272.996C784.265 272.996 783.495 268.363 782.112 265.674C780.729 262.986 781.249 250.279 781.249 250.279C781.249 250.279 780.199 242.057 781.156 237.869C781.967 234.24 783.4 230.736 785.407 227.473C787.305 224.27 788.506 221.281 787.992 220.083C787.477 218.885 792.547 216.295 792.547 216.295L795.357 220.232L796.073 222.584C796.073 222.584 810.936 213.36 810.588 208.875Z" fill="#DCE6F2"/>
<path id="Vector_76" d="M835.426 229.651C835.426 229.651 845.092 237.869 846.126 239.216C847.161 240.562 850.628 247.561 846.141 249.684C841.654 251.808 824.074 255.082 822.328 253.953C820.582 252.823 810.069 255.227 810.069 255.227C810.069 255.227 792.483 258.964 796.279 252.836C800.075 246.707 809.053 247.739 809.053 247.739C809.053 247.739 823.559 247.718 825.108 246.465C826.658 245.212 838.349 242.524 835.701 236.986C833.053 231.448 835.426 229.651 835.426 229.651Z" fill="#FFC1C8"/>
<path id="Vector_77" opacity="0.1" d="M807.043 266.422C807.043 266.422 784.529 283.312 786.77 283.312C789.012 283.312 807.043 266.422 807.043 266.422Z" fill="black"/>
<path id="Vector_78" opacity="0.1" d="M822.058 273.298C822.058 273.298 814.904 274.788 816.287 275.689C817.669 276.589 822.058 273.298 822.058 273.298Z" fill="black"/>
<path id="Vector_79" opacity="0.1" d="M796.828 232.34C796.828 232.34 805.758 233.032 804.184 235.453C802.61 237.874 796.828 232.34 796.828 232.34Z" fill="black"/>
<path id="Vector_80" opacity="0.1" d="M791.262 304.933C791.262 304.933 790.051 307.974 791.262 309.605C792.474 311.236 791.262 315.126 791.262 315.126V328.716C791.262 328.716 791.096 338.582 795.23 342.018L791.262 304.933Z" fill="black"/>
<path id="Vector_81" opacity="0.1" d="M779.439 347.284C779.439 347.284 781.852 350.346 782.2 351.467C782.548 352.589 779.439 347.284 779.439 347.284Z" fill="black"/>
<path id="Vector_82" opacity="0.1" d="M780.042 346.156C780.042 346.156 785.652 345.26 786.515 345.782C787.379 346.304 780.042 346.156 780.042 346.156Z" fill="black"/>
<path id="Vector_83" opacity="0.1" d="M778.405 359.464C778.405 359.464 776.762 359.613 780.042 361.163C783.323 362.713 789.708 364.675 789.791 364.004C789.875 363.333 778.405 359.464 778.405 359.464Z" fill="black"/>
<path id="Vector_85" opacity="0.1" d="M812.231 341.847C812.231 341.847 813.869 339.384 814.472 340.428C815.075 341.473 812.231 341.847 812.231 341.847Z" fill="black"/>
<path id="Vector_86" opacity="0.1" d="M807.043 197.064C807.045 198.899 806.752 200.724 806.17 202.488C805.219 203.235 803.576 203.244 802.404 202.687C801.031 202.033 800.133 200.844 799.241 199.714C798.348 198.585 797.333 197.455 795.872 196.971C794.023 196.368 791.915 196.971 790.306 197.973C788.698 198.976 787.413 200.301 785.893 201.371C784.373 202.441 782.436 203.307 780.498 203.044C779.248 202.878 778.14 202.267 777.066 201.677C775.595 200.874 774.016 199.625 772.402 199.086C770.789 198.547 769.46 199.511 767.925 199.511C766.704 199.893 765.375 200.763 765.62 201.863C765.752 202.272 765.964 202.657 766.248 203.002C766.741 203.843 766.936 204.791 766.807 205.727C766.679 206.663 766.233 207.546 765.527 208.264C763.495 205.719 762.182 202.795 761.694 199.73C761.207 196.664 761.559 193.542 762.722 190.616C763.885 187.69 765.827 185.042 768.39 182.886C770.953 180.73 774.065 179.126 777.476 178.204C780.887 177.282 784.5 177.067 788.024 177.578C791.548 178.089 794.884 179.31 797.763 181.143C800.641 182.977 802.981 185.371 804.594 188.132C806.207 190.893 807.048 193.945 807.048 197.039L807.043 197.064Z" fill="black"/>
<path id="Vector_87" d="M767.92 198.937C766.699 199.32 765.37 200.19 765.611 201.294C765.747 201.7 765.961 202.083 766.243 202.428C767.675 204.641 766.464 207.818 763.791 208.845C763.372 209.034 762.894 209.1 762.428 209.032C762.059 208.933 761.722 208.758 761.447 208.523C760.01 207.41 759.019 205.93 758.618 204.297C758.196 202.598 758.456 200.797 758.24 199.052C758.024 197.306 757.333 195.586 757.093 193.828C756.922 192.959 757.029 192.067 757.402 191.246C757.725 190.705 758.142 190.209 758.637 189.777C760.015 188.447 761.452 187.088 762.144 185.402C763.237 182.718 762.443 179.299 764.836 177.333C765.944 176.433 767.494 176.097 768.867 175.528C770.159 174.933 771.398 174.253 772.569 173.494C777.007 170.852 782.401 168.822 787.678 169.756C789.786 170.198 791.805 170.914 793.665 171.88C797.121 173.53 800.403 175.44 803.473 177.588C804.8 178.438 805.96 179.469 806.906 180.641C807.61 181.645 808.117 182.743 808.406 183.89C809.111 186.394 809.207 188.997 808.691 191.535C808.2 194.024 807.087 196.44 807.043 198.967C807.043 199.816 807.121 200.734 806.616 201.464C805.807 202.628 803.801 202.738 802.428 202.093C801.055 201.447 800.158 200.25 799.27 199.12C798.383 197.99 797.363 196.861 795.901 196.381C794.053 195.773 791.944 196.381 790.336 197.379C788.727 198.377 787.447 199.706 785.922 200.776C784.397 201.846 782.489 202.713 780.528 202.45C779.277 202.284 778.169 201.677 777.095 201.086C775.624 200.279 774.045 199.031 772.437 198.496C770.828 197.96 769.45 198.937 767.92 198.937Z" fill="#794F6A"/>
<g id="Group_2" opacity="0.1">
<path id="Vector_89" opacity="0.1" d="M763.781 207.639C763.364 207.828 762.887 207.894 762.423 207.826C762.052 207.728 761.715 207.551 761.442 207.312C760.005 206.201 759.012 204.723 758.608 203.091C758.191 201.371 758.451 199.587 758.235 197.842C758.019 196.096 757.323 194.38 757.088 192.618C757.088 192.533 757.088 192.444 757.063 192.354C757.01 192.841 757.018 193.331 757.088 193.815C757.323 195.574 758.019 197.272 758.235 199.039C758.451 200.806 758.191 202.568 758.608 204.284C759.011 205.918 760.003 207.398 761.442 208.51C761.716 208.746 762.053 208.921 762.423 209.02C762.887 209.087 763.364 209.022 763.781 208.833C765.89 208.022 767.082 205.885 766.802 203.932C766.7 204.72 766.37 205.473 765.841 206.121C765.313 206.77 764.605 207.292 763.781 207.639Z" fill="black"/>
<path id="Vector_90" opacity="0.1" d="M808.656 190.333C808.166 192.822 807.053 195.238 807.013 197.765C807.013 198.615 807.092 199.532 806.582 200.262C805.778 201.426 803.772 201.536 802.399 200.891C801.026 200.245 800.128 199.052 799.236 197.918C798.343 196.784 797.333 195.659 795.867 195.179C794.023 194.576 791.915 195.179 790.306 196.181C788.698 197.183 787.413 198.504 785.893 199.579C784.373 200.653 782.436 201.515 780.498 201.256C779.248 201.086 778.14 200.479 777.066 199.889C775.595 199.082 774.016 197.837 772.407 197.298C770.799 196.759 769.465 197.723 767.93 197.723C766.709 198.109 765.38 198.975 765.615 200.084C765.645 200.204 765.69 200.321 765.748 200.432C766.228 199.707 767.008 199.167 767.93 198.92C769.46 198.92 770.813 197.969 772.407 198.496C774.001 199.022 775.609 200.279 777.066 201.086C778.13 201.677 779.238 202.284 780.498 202.45C782.46 202.713 784.382 201.859 785.893 200.776C787.403 199.693 788.703 198.355 790.306 197.379C791.91 196.402 794.023 195.773 795.867 196.381C797.338 196.861 798.348 198.003 799.236 199.12C800.124 200.237 801.026 201.422 802.399 202.093C803.772 202.764 805.778 202.628 806.582 201.464C807.072 200.734 806.999 199.821 807.013 198.967C807.053 196.44 808.151 194.024 808.656 191.535C808.915 190.256 809.02 188.959 808.97 187.662C808.939 188.557 808.834 189.45 808.656 190.333Z" fill="black"/>
</g>
<path id="Vector_91" opacity="0.1" d="M789.879 126.216C789.879 126.216 780.562 140.864 793.312 148.339C806.062 155.814 807.293 155.066 807.293 155.066C807.293 155.066 807.116 156.858 807.293 157.308C807.469 157.759 810.726 158.799 810.726 158.799C810.726 158.799 814.693 164.32 820.386 166.724C826.079 169.128 827.119 174.793 827.119 174.793C827.119 174.793 827.119 176.738 830.061 178.531C833.004 180.323 835.269 185.555 835.269 185.555V190.341C835.269 191.089 836.304 193.314 834.063 193.552C831.822 193.79 833.715 198.262 833.715 198.262C833.715 198.262 831.302 200.81 831.817 201.999C832.332 203.189 830.782 205.584 830.782 205.584C830.782 205.584 828.884 207.975 829.056 208.425C829.228 208.875 826.987 210.519 827.502 211.564C828.016 212.608 824.917 213.955 825.432 215.152C825.947 216.35 823.225 216.944 823.225 216.944L815.767 231.894C815.767 231.894 831.459 234.867 835.509 242.354L855.291 210.965C855.291 210.965 866.335 187.5 866.683 186.005C867.031 184.51 864.265 179.129 864.265 179.129L850.804 157.895L830.611 133.232C830.611 133.232 814.56 103.648 789.879 126.216Z" fill="black"/>
<path id="Vector_92" opacity="0.1" d="M809.804 132.396C809.804 132.396 785.559 139.764 798.329 147.239C811.098 154.714 812.31 153.962 812.31 153.962C812.31 153.962 812.138 155.758 812.31 156.204C812.481 156.65 815.742 157.699 815.742 157.699C815.742 157.699 819.714 163.22 825.408 165.624C831.101 168.028 832.141 173.693 832.141 173.693C832.141 173.693 832.141 175.638 835.083 177.431C838.025 179.223 840.261 184.455 840.261 184.455V189.237C840.261 189.985 841.296 192.21 839.05 192.452C836.804 192.694 838.707 197.162 838.707 197.162C838.707 197.162 836.289 199.71 836.809 200.895C837.329 202.08 835.774 204.484 835.774 204.484C835.774 204.484 833.877 206.875 834.048 207.325C834.22 207.775 831.974 209.419 832.494 210.464C833.013 211.508 829.904 212.855 830.424 214.052C830.944 215.25 828.213 215.844 828.213 215.844L820.759 230.79C820.759 230.79 833.685 231.367 837.765 238.859L860.279 209.882C860.279 209.882 871.327 186.417 871.67 184.922C872.013 183.427 869.262 178.029 869.262 178.029L855.801 156.795L825.094 141.455C825.094 141.455 834.485 109.823 809.804 132.396Z" fill="black"/>
<path id="Vector_93" d="M791.262 126.216C791.262 126.216 781.945 140.864 794.695 148.339C807.445 155.814 808.676 155.066 808.676 155.066C808.676 155.066 808.504 156.858 808.676 157.308C808.847 157.759 812.108 158.799 812.108 158.799C812.108 158.799 816.081 164.32 821.774 166.724C827.467 169.128 828.507 174.793 828.507 174.793C828.507 174.793 828.507 176.738 831.449 178.531C834.391 180.323 836.652 185.555 836.652 185.555V190.341C836.652 191.089 837.687 193.314 835.441 193.552C833.195 193.79 835.098 198.262 835.098 198.262C835.098 198.262 832.68 200.81 833.2 201.999C833.72 203.189 832.165 205.584 832.165 205.584C832.165 205.584 830.267 207.975 830.439 208.425C830.611 208.875 828.365 210.519 828.884 211.564C829.404 212.608 826.295 213.955 826.815 215.152C827.335 216.35 824.603 216.944 824.603 216.944L817.15 231.894C817.15 231.894 832.812 234.867 836.887 242.354L856.669 210.965C856.669 210.965 867.718 187.5 868.061 186.005C868.404 184.51 865.643 179.129 865.643 179.129L852.182 157.895L831.993 133.241C831.993 133.241 815.938 103.648 791.262 126.216Z" fill="#6C63FF"/>
<g id="Group_2_2" opacity="0.1">
<path id="Vector_94" opacity="0.1" d="M689.327 133.572C689.145 131.716 688.684 129.888 687.954 128.136C687.243 126.437 686.272 124.764 686.041 122.959C686.041 122.904 686.041 122.853 686.041 122.798C685.99 123.249 685.99 123.705 686.041 124.157C686.272 125.962 687.243 127.622 687.954 129.334C688.684 131.084 689.145 132.911 689.327 134.766C689.396 135.462 689.425 136.167 689.435 136.889C689.449 135.764 689.435 134.664 689.327 133.572Z" fill="black"/>
<path id="Vector_95" opacity="0.1" d="M706.206 152.182C705.151 154.187 701.949 154.505 699.497 153.915C697.404 153.396 695.484 152.453 693.893 151.166C692.302 149.878 691.087 148.282 690.347 146.508C689.665 144.683 689.334 142.774 689.366 140.856C689.337 143.196 689.44 145.506 690.347 147.702C691.086 149.476 692.301 151.073 693.892 152.361C695.483 153.649 697.404 154.593 699.497 155.113C701.949 155.699 705.151 155.385 706.206 153.376C706.652 152.526 706.608 151.541 706.588 150.573C706.579 151.125 706.449 151.671 706.206 152.182Z" fill="black"/>
<path id="Vector_96" opacity="0.1" d="M753.851 124.263C753.64 125.622 753.018 127.151 751.522 127.605C750.65 127.816 749.719 127.741 748.908 127.393C746.456 126.467 744.274 124.233 741.655 124.772C739.517 125.197 738.492 127.291 737.929 129.134C737.52 130.299 737.342 131.515 737.404 132.731C737.497 131.918 737.673 131.114 737.929 130.327C738.492 128.489 739.517 126.407 741.655 125.966C744.274 125.431 746.437 127.665 748.908 128.586C749.718 128.937 750.65 129.014 751.522 128.803C753.018 128.348 753.64 126.819 753.851 125.456C753.986 124.588 754.035 123.711 753.998 122.836C753.974 123.311 753.925 123.791 753.851 124.263Z" fill="black"/>
<path id="Vector_97" opacity="0.1" d="M740.341 141.565C738.87 142.487 736.874 141.505 735.261 140.771C733.535 139.985 731.338 139.497 729.695 140.401C729.131 140.707 728.675 141.149 728.126 141.476C726.995 142.081 725.655 142.322 724.34 142.155C721.216 141.879 720.049 140.168 717.671 138.843C715.925 137.87 712.277 137.454 711.237 139.45C710.987 140.038 710.918 140.671 711.036 141.289C711.068 141.068 711.136 140.852 711.237 140.648C712.282 138.647 715.925 139.063 717.671 140.04C720.049 141.365 721.216 143.077 724.34 143.353C725.655 143.516 726.995 143.274 728.126 142.669C728.675 142.346 729.131 141.905 729.695 141.599C731.352 140.707 733.535 141.174 735.261 141.968C736.874 142.699 738.86 143.667 740.341 142.758C741.204 142.223 741.41 141.272 741.219 140.333C741.118 140.826 740.804 141.266 740.341 141.565Z" fill="black"/>
<path id="Vector_98" opacity="0.1" d="M710.909 143.629C710.237 144.962 708.172 145.328 707.221 146.53C706.51 147.421 706.569 148.534 706.593 149.651C706.584 148.971 706.802 148.303 707.221 147.727C708.172 146.525 710.237 146.156 710.909 144.822C711.143 144.242 711.208 143.62 711.095 143.013C711.064 143.225 711.002 143.432 710.909 143.629Z" fill="black"/>
<path id="Vector_84" opacity="0.1" d="M802.419 344.591C802.997 344.591 810.221 344.218 809.804 345.19C809.387 346.163 802.419 344.591 802.419 344.591Z" fill="black"/>
</g>
</g>
<path id="Vector_88" d="M820.254 229.651C820.254 229.651 794.886 249.977 800.06 260.14C805.233 270.303 828.012 252.368 828.012 252.368L836.132 236.094L820.254 229.651Z" fill="#F8BDC5"/>
</g>
</g>
</svg>
